<?xml version="1.0" standalone="no"?><!DOCTYPE svg PUBLIC "-//W3C//DTD SVG 1.1//EN" "http://www.w3.org/Graphics/SVG/1.1/DTD/svg11.dtd"><svg t="1589965777120" class="icon" viewBox="0 0 1024 1024" version="1.1" xmlns="http://www.w3.org/2000/svg" p-id="2087" xmlns:xlink="http://www.w3.org/1999/xlink" width="200" height="200"><defs><style type="text/css"></style></defs><path d="M491.7 475.3c-4.8-2.1-9.6-4-14.4-5.9 75.4-43.4 126.2-124.8 126.2-218 0-138.9-112.6-251.4-251.4-251.4S100.6 112.5 100.6 251.4c0 93.2 50.7 174.6 126.1 218-47.2 17.9-90.3 46.1-126.5 83.2C35.6 618.7 0 706 0 798.5L0 968.2c0 30.7 25 55.7 55.7 55.7L467 1023.9c17.7 0 32-14.3 32-32s-14.3-32-32-32L64 959.9 64 798.5c0-157.5 123.2-283.9 280.6-287.9 4.9-0.1 10-0.1 14.9 0 37.1 0.9 73 8.8 106.8 23.5 16.2 7 35.1-0.4 42.1-16.7C515.4 501.2 507.9 482.3 491.7 475.3zM164.6 251.4c0-50.1 19.5-97.1 54.9-132.5 35.4-35.4 82.5-54.9 132.5-54.9s97.1 19.5 132.5 54.9c35.4 35.4 54.9 82.5 54.9 132.5s-19.5 97.1-54.9 132.5C449.1 419.3 402.1 438.8 352 438.8s-97.1-19.5-132.5-54.9C184.1 348.5 164.6 301.5 164.6 251.4z" p-id="2088"></path><path d="M768 512c-141.4 0-256 114.6-256 256 0 141.4 114.6 256 256 256s256-114.6 256-256C1024 626.6 909.4 512 768 512zM632.2 632.2c36.3-36.3 84.5-56.2 135.8-56.2 39.9 0 78 12.1 110 34.6l-267.4 267.4c-22.5-32-34.6-70.1-34.6-110C576 716.7 596 668.5 632.2 632.2zM903.8 903.7c-36.3 36.3-84.5 56.2-135.8 56.2-41 0-80-12.8-112.5-36.4l268.1-268.1c23.6 32.5 36.4 71.5 36.4 112.5C960 819.3 940 867.5 903.8 903.7z" p-id="2089"></path></svg>